<?xml version="1.0" standalone="no"?>
<!DOCTYPE svg PUBLIC "-//W3C//DTD SVG 20010904//EN"
 "http://www.w3.org/TR/2001/REC-SVG-20010904/DTD/svg10.dtd">
<svg version="1.0" xmlns="http://www.w3.org/2000/svg"
 width="143.000000pt" height="161.000000pt" viewBox="0 0 143.000000 161.000000"
 preserveAspectRatio="xMidYMid meet">

<g transform="translate(0.000000,161.000000) scale(0.100000,-0.100000)"
fill="#000000" stroke="none">
<path d="M500 1250 c-7 -13 -2 -16 28 -18 20 -2 41 -7 47 -12 16 -13 24 -3 18
20 -7 25 -81 33 -93 10z"/>
<path d="M883 1263 c-38 -4 -43 -7 -43 -30 0 -20 3 -23 13 -15 7 6 29 12 49
13 28 2 34 6 30 21 -2 10 -5 17 -6 16 0 -1 -20 -3 -43 -5z"/>
<path d="M530 1164 c0 -8 5 -12 10 -9 6 3 10 1 10 -4 0 -6 5 -11 10 -11 17 0
11 14 -10 28 -17 10 -20 10 -20 -4z"/>
<path d="M608 1173 c7 -3 16 -2 19 1 4 3 -2 6 -13 5 -11 0 -14 -3 -6 -6z"/>
<path d="M800 1176 c0 -2 9 -6 20 -9 11 -3 18 -1 14 4 -5 9 -34 13 -34 5z"/>
<path d="M885 1171 c-3 -5 -2 -12 3 -15 5 -3 9 1 9 9 0 17 -3 19 -12 6z"/>
<path d="M496 1157 c3 -10 9 -15 12 -12 3 3 0 11 -7 18 -10 9 -11 8 -5 -6z"/>
<path d="M636 1152 c-3 -5 1 -9 9 -9 8 0 12 4 9 9 -3 4 -7 8 -9 8 -2 0 -6 -4
-9 -8z"/>
<path d="M860 1150 c0 -5 5 -10 11 -10 5 0 7 5 4 10 -3 6 -8 10 -11 10 -2 0
-4 -4 -4 -10z"/>
<path d="M665 1130 c-3 -5 -1 -10 4 -10 6 0 11 5 11 10 0 6 -2 10 -4 10 -3 0
-8 -4 -11 -10z"/>
<path d="M750 1130 c0 -6 7 -10 15 -10 8 0 15 2 15 4 0 2 -7 6 -15 10 -8 3
-15 1 -15 -4z"/>
<path d="M931 1054 c0 -11 3 -14 6 -6 3 7 2 16 -1 19 -3 4 -6 -2 -5 -13z"/>
<path d="M585 1040 c-3 -5 -2 -10 4 -10 5 0 13 5 16 10 3 6 2 10 -4 10 -5 0
-13 -4 -16 -10z"/>
<path d="M529 993 c-13 -16 -12 -17 4 -4 9 7 17 15 17 17 0 8 -8 3 -21 -13z"/>
<path d="M1049 978 c-1 -7 -1 -17 0 -22 2 -9 -21 -5 -78 13 -31 10 -32 9 -19
-7 23 -26 30 -53 18 -67 -9 -10 -7 -13 7 -11 11 2 17 10 15 21 -2 11 1 15 10
10 7 -3 4 1 -7 10 -19 17 -19 17 10 12 37 -7 51 1 52 31 2 23 -6 32 -8 10z"/>
<path d="M447 965 c-21 -7 -41 -16 -44 -19 -3 -3 -12 2 -20 12 -13 16 -14 16
-11 -3 3 -16 10 -20 38 -18 19 1 29 0 23 -3 -7 -3 -13 -10 -13 -15 0 -6 5 -7
11 -4 6 4 9 1 7 -6 -1 -8 1 -15 6 -16 5 -1 13 -7 17 -15 6 -9 9 -9 9 -1 0 6
-5 15 -10 18 -13 8 -3 43 18 68 18 20 18 20 -31 2z"/>
<path d="M366 905 c4 -8 10 -12 15 -9 11 6 2 24 -11 24 -5 0 -7 -7 -4 -15z"/>
<path d="M1036 911 c-17 -6 -17 -8 -3 -14 8 -3 21 1 27 9 13 15 6 17 -24 5z"/>
<path d="M316 862 c-2 -4 -1 -23 4 -42 l8 -35 1 43 c1 41 -3 50 -13 34z"/>
<path d="M1101 853 c-1 -12 4 -25 9 -28 12 -7 12 2 0 30 -8 19 -9 19 -9 -2z"/>
<path d="M1110 770 c-13 -8 -12 -10 3 -10 9 0 17 5 17 10 0 12 -1 12 -20 0z"/>
<path d="M451 754 c0 -11 3 -14 6 -6 3 7 2 16 -1 19 -3 4 -6 -2 -5 -13z"/>
<path d="M387 743 c-4 -3 -7 -11 -7 -17 0 -6 5 -5 12 2 6 6 9 14 7 17 -3 3 -9
2 -12 -2z"/>
<path d="M1120 742 c0 -6 -8 -13 -17 -15 -16 -4 -16 -5 -1 -6 18 -1 34 16 24
26 -3 4 -6 1 -6 -5z"/>
<path d="M470 698 c0 -9 7 -22 17 -29 15 -13 15 -12 3 11 -17 34 -20 36 -20
18z"/>
<path d="M1008 703 c7 -3 16 -2 19 1 4 3 -2 6 -13 5 -11 0 -14 -3 -6 -6z"/>
<path d="M350 691 c0 -5 5 -13 10 -16 6 -3 10 -2 10 4 0 5 -4 13 -10 16 -5 3
-10 2 -10 -4z"/>
<path d="M946 683 c-6 -14 -5 -15 5 -6 7 7 10 15 7 18 -3 3 -9 -2 -12 -12z"/>
<path d="M1060 691 c0 -7 -5 -9 -12 -5 -7 5 -8 3 -3 -5 5 -9 10 -10 18 -2 6 6
8 14 4 18 -4 3 -7 1 -7 -6z"/>
<path d="M340 520 c0 -5 5 -10 10 -10 6 0 10 5 10 10 0 6 -4 10 -10 10 -5 0
-10 -4 -10 -10z"/>
<path d="M945 520 c-3 -5 -1 -10 4 -10 6 0 11 5 11 10 0 6 -2 10 -4 10 -3 0
-8 -4 -11 -10z"/>
<path d="M1060 520 c0 -5 5 -10 10 -10 6 0 10 5 10 10 0 6 -4 10 -10 10 -5 0
-10 -4 -10 -10z"/>
<path d="M468 513 c7 -3 16 -2 19 1 4 3 -2 6 -13 5 -11 0 -14 -3 -6 -6z"/>
</g>
</svg>
